<?xml version="1.0" encoding="UTF-8"?>
<svg xmlns="http://www.w3.org/2000/svg" viewBox="0 0 4403.48 3320.38">
  <defs>
    <style>.cls-1,.cls-10,.cls-11,.cls-12,.cls-13,.cls-14,.cls-15,.cls-16,.cls-17,.cls-18,.cls-19,.cls-2,.cls-20,.cls-21,.cls-22,.cls-23,.cls-24,.cls-25,.cls-26,.cls-27,.cls-28,.cls-29,.cls-3,.cls-30,.cls-31,.cls-32,.cls-33,.cls-34,.cls-35,.cls-36,.cls-37,.cls-38,.cls-39,.cls-4,.cls-40,.cls-41,.cls-42,.cls-43,.cls-44,.cls-45,.cls-46,.cls-47,.cls-48,.cls-49,.cls-5,.cls-50,.cls-51,.cls-52,.cls-53,.cls-54,.cls-55,.cls-56,.cls-57,.cls-58,.cls-59,.cls-6,.cls-60,.cls-61,.cls-62,.cls-63,.cls-64,.cls-65,.cls-7,.cls-8,.cls-9{fill:none;stroke-linecap:round;stroke-linejoin:round;}.cls-1{stroke:#0000cf;stroke-width:0.25px;stroke-dasharray:0 28.51;opacity:0;}.cls-2{stroke:#0004d0;stroke-width:0.44px;stroke-dasharray:0 28.52;opacity:0.02;}.cls-3{stroke:#0007d1;stroke-width:0.64px;stroke-dasharray:0 28.53;opacity:0.03;}.cls-4{stroke:#000bd1;stroke-width:0.83px;stroke-dasharray:0 28.54;opacity:0.05;}.cls-5{stroke:#000fd2;stroke-width:1.02px;stroke-dasharray:0 28.55;opacity:0.06;}.cls-6{stroke:#0012d3;stroke-width:1.21px;stroke-dasharray:0 28.56;opacity:0.08;}.cls-7{stroke:#0016d4;stroke-width:1.41px;stroke-dasharray:0 28.56;opacity:0.09;}.cls-8{stroke:#0019d4;stroke-width:1.6px;stroke-dasharray:0 28.57;opacity:0.11;}.cls-9{stroke:#001dd5;stroke-width:1.79px;stroke-dasharray:0 28.58;opacity:0.13;}.cls-10{stroke:#0021d6;stroke-width:1.98px;stroke-dasharray:0 28.59;opacity:0.14;}.cls-11{stroke:#0024d7;stroke-width:2.18px;stroke-dasharray:0 28.6;opacity:0.16;}.cls-12{stroke:#0028d7;stroke-width:2.37px;stroke-dasharray:0 28.61;opacity:0.17;}.cls-13{stroke:#002cd8;stroke-width:2.56px;stroke-dasharray:0 28.61;opacity:0.19;}.cls-14{stroke:#002fd9;stroke-width:2.76px;stroke-dasharray:0 28.62;opacity:0.2;}.cls-15{stroke:#0033da;stroke-width:2.95px;stroke-dasharray:0 28.63;opacity:0.22;}.cls-16{stroke:#0037da;stroke-width:3.14px;stroke-dasharray:0 28.64;opacity:0.23;}.cls-17{stroke:#003adb;stroke-width:3.33px;stroke-dasharray:0 28.65;opacity:0.25;}.cls-18{stroke:#003edc;stroke-width:3.53px;stroke-dasharray:0 28.66;opacity:0.27;}.cls-19{stroke:#0042dd;stroke-width:3.72px;stroke-dasharray:0 28.66;opacity:0.28;}.cls-20{stroke:#0045dd;stroke-width:3.91px;stroke-dasharray:0 28.67;opacity:0.3;}.cls-21{stroke:#0049de;stroke-width:4.11px;stroke-dasharray:0 28.68;opacity:0.31;}.cls-22{stroke:#004cdf;stroke-width:4.3px;stroke-dasharray:0 28.69;opacity:0.33;}.cls-23{stroke:#0050e0;stroke-width:4.49px;stroke-dasharray:0 28.7;opacity:0.34;}.cls-24{stroke:#0054e0;stroke-width:4.68px;stroke-dasharray:0 28.71;opacity:0.36;}.cls-25{stroke:#0057e1;stroke-width:4.88px;stroke-dasharray:0 28.71;opacity:0.38;}.cls-26{stroke:#005be2;stroke-width:5.07px;stroke-dasharray:0 28.72;opacity:0.39;}.cls-27{stroke:#005fe3;stroke-width:5.26px;stroke-dasharray:0 28.73;opacity:0.41;}.cls-28{stroke:#0062e3;stroke-width:5.45px;stroke-dasharray:0 28.74;opacity:0.42;}.cls-29{stroke:#0066e4;stroke-width:5.65px;stroke-dasharray:0 28.75;opacity:0.44;}.cls-30{stroke:#006ae5;stroke-width:5.84px;stroke-dasharray:0 28.76;opacity:0.45;}.cls-31{stroke:#006de6;stroke-width:6.03px;stroke-dasharray:0 28.76;opacity:0.47;}.cls-32{stroke:#0071e6;stroke-width:6.23px;stroke-dasharray:0 28.77;opacity:0.48;}.cls-33{stroke:#0075e7;stroke-width:6.42px;stroke-dasharray:0 28.78;opacity:0.5;}.cls-34{stroke:#0078e8;stroke-width:6.61px;stroke-dasharray:0 28.79;opacity:0.52;}.cls-35{stroke:#007ce9;stroke-width:6.8px;stroke-dasharray:0 28.8;opacity:0.53;}.cls-36{stroke:#007fe9;stroke-width:7px;stroke-dasharray:0 28.81;opacity:0.55;}.cls-37{stroke:#0083ea;stroke-width:7.19px;stroke-dasharray:0 28.81;opacity:0.56;}.cls-38{stroke:#0087eb;stroke-width:7.38px;stroke-dasharray:0 28.82;opacity:0.58;}.cls-39{stroke:#008aec;stroke-width:7.58px;stroke-dasharray:0 28.83;opacity:0.59;}.cls-40{stroke:#008eec;stroke-width:7.77px;stroke-dasharray:0 28.84;opacity:0.61;}.cls-41{stroke:#0092ed;stroke-width:7.96px;stroke-dasharray:0 28.85;opacity:0.63;}.cls-42{stroke:#0095ee;stroke-width:8.15px;stroke-dasharray:0 28.86;opacity:0.64;}.cls-43{stroke:#0099ef;stroke-width:8.35px;stroke-dasharray:0 28.86;opacity:0.66;}.cls-44{stroke:#009def;stroke-width:8.54px;stroke-dasharray:0 28.87;opacity:0.67;}.cls-45{stroke:#00a0f0;stroke-width:8.73px;stroke-dasharray:0 28.88;opacity:0.69;}.cls-46{stroke:#00a4f1;stroke-width:8.92px;stroke-dasharray:0 28.89;opacity:0.7;}.cls-47{stroke:#00a7f2;stroke-width:9.12px;stroke-dasharray:0 28.9;opacity:0.72;}.cls-48{stroke:#00abf2;stroke-width:9.31px;stroke-dasharray:0 28.91;opacity:0.73;}.cls-49{stroke:#00aff3;stroke-width:9.5px;stroke-dasharray:0 28.91;opacity:0.75;}.cls-50{stroke:#00b2f4;stroke-width:9.7px;stroke-dasharray:0 28.92;opacity:0.77;}.cls-51{stroke:#00b6f5;stroke-width:9.89px;stroke-dasharray:0 28.93;opacity:0.78;}.cls-52{stroke:#00baf5;stroke-width:10.08px;stroke-dasharray:0 28.94;opacity:0.8;}.cls-53{stroke:#00bdf6;stroke-width:10.27px;stroke-dasharray:0 28.95;opacity:0.81;}.cls-54{stroke:#00c1f7;stroke-width:10.47px;stroke-dasharray:0 28.96;opacity:0.83;}.cls-55{stroke:#00c5f8;stroke-width:10.66px;stroke-dasharray:0 28.96;opacity:0.84;}.cls-56{stroke:#00c8f8;stroke-width:10.85px;stroke-dasharray:0 28.97;opacity:0.86;}.cls-57{stroke:#00ccf9;stroke-width:11.05px;stroke-dasharray:0 28.98;opacity:0.88;}.cls-58{stroke:#00d0fa;stroke-width:11.24px;stroke-dasharray:0 28.99;opacity:0.89;}.cls-59{stroke:#00d3fb;stroke-width:11.43px;stroke-dasharray:0 29;opacity:0.91;}.cls-60{stroke:#00d7fb;stroke-width:11.62px;stroke-dasharray:0 29.01;opacity:0.92;}.cls-61{stroke:#00dafc;stroke-width:11.82px;stroke-dasharray:0 29.01;opacity:0.94;}.cls-62{stroke:#00defd;stroke-width:12.01px;stroke-dasharray:0 29.02;opacity:0.95;}.cls-63{stroke:#00e2fe;stroke-width:12.2px;stroke-dasharray:0 29.03;opacity:0.97;}.cls-64{stroke:#00e5fe;stroke-width:12.39px;stroke-dasharray:0 29.04;opacity:0.98;}.cls-65{stroke:#00e9ff;stroke-width:12.59px;stroke-dasharray:0 29.05;}</style>
  </defs>
  <title>fiskl_wave-with-gradient-1</title>
  <g id="Layer_2" data-name="Layer 2">
    <g id="object">
      <path class="cls-1" d="M586,3320.25c-9.36-340.26,582.53-442.84,852.68-546.6S1804,2473,2092.3,2431.05,3015.67,2500,3164.59,2227.2c114.14-209.08-447.38-817.4-423.94-1072.69s487.49-247.22,654.49-400.77c115.81-106.48,319.2-89.13,456.61-158.93S3890.38,181.1,3884.22.13"></path>
      <path class="cls-2" d="M577,3297.89c-4.7-192.68,187.23-309.95,400.39-388.89,161-59.64,332.64-99.34,450.11-142.46a827.92,827.92,0,0,0,98.17-43.79c202.42-105.62,304.56-263.47,557.08-296.81,65.32-8.63,146.69-9,237.56-10.92,76.58-1.64,156.34-3.35,237.57-7.74,61-3.3,122.24-6.87,182.47-12.2,190.31-16.78,357.87-53.68,428.2-175.68,101.11-175.4-286.35-641.67-386.83-932.95-17.27-49.84-26.12-94.55-22.64-131.81,23.69-254.09,480.54-249,645.43-403,18.05-16.81,38.25-30.58,60-42.13,116.05-61.62,276.48-60.07,391.08-119.23,136.31-70.67,40.61-410.87,36.66-589.86"></path>
      <path class="cls-3" d="M567.91,3275.53c-4.08-191.72,190.34-309.58,402.71-383.76,160-55.9,327.05-90.82,445.61-132.33,35.32-12.37,67.76-27.07,98.51-42.66,204.33-103.55,304-265.67,558.41-296,66.78-7.95,148.67-6.86,241.62-10.63,77.63-3.15,155.9-7.7,236.86-15.2,61.06-5.65,122.39-10.49,184-16,193-17.24,363-45.89,436.83-167.37,104.7-172.32-275.26-635.52-373.08-925.69-16.86-49.51-25.44-94-21.91-131.14C2801.39,901.89,3251,904,3413.81,749.59A279.11,279.11,0,0,1,3473,707.33c114.5-62.06,272.88-62,386.37-121.55,135.21-71.53,42.58-408,40.85-585"></path>
      <path class="cls-4" d="M558.85,3253.16c-3.45-190.75,193.4-309.2,405-378.63,158.95-52.15,321.44-82.29,441.11-122.2,35.31-11.77,67.8-26.24,98.84-41.51,206.26-101.5,303.52-267.83,559.74-295.1,68.27-7.27,150.65-4.73,245.69-10.34,78.67-4.64,155.47-12.07,236.15-22.65,61.12-8,122.54-14.13,185.49-19.88,195.67-17.71,368.12-38.07,445.46-159.07,108.18-169.24-263.52-629.58-359.33-918.42-16.33-49.23-24.76-93.43-21.18-130.47,24.18-251.66,466.64-252.6,627.3-407.38a279.33,279.33,0,0,1,58.41-42.37c113-62.52,269.43-63.66,381.66-123.87,134.29-72.06,44.56-405.18,45-580.21"></path>
      <path class="cls-5" d="M549.8,3230.8C547,3041,746.19,2922,957.14,2857.29c157.86-48.41,315.81-73.76,436.61-112.06,35.28-11.19,67.84-25.41,99.18-40.37,208.17-99.44,303-269.93,561.06-294.25,69.76-6.58,152.63-2.58,249.76-10.05,79.7-6.13,155.06-16.46,235.44-30.11,61.2-10.39,122.69-17.75,187-23.71,198.36-18.18,373.17-30.23,454.1-150.77,111.56-166.15-252.22-623.49-345.59-911.16-15.88-48.91-24.08-92.87-20.45-129.79,24.43-250.45,459.32-254.77,618.23-409.58,17.29-16.85,36.73-30.71,57.62-42.5C3601.52,640,3756,637.44,3867,576.75c133.26-72.81,46.54-402.33,49.24-575.37"></path>
      <path class="cls-6" d="M540.74,3208.44C538.53,3019.61,740.08,2900,950.4,2840.06c156.73-44.68,310.16-65.26,432.1-101.94,35.27-10.6,67.89-24.57,99.52-39.22,210.1-97.39,302.56-272,562.39-293.4,71.26-5.88,154.6-.42,253.83-9.76,80.74-7.59,154.67-20.87,234.73-37.56,61.29-12.78,122.84-21.38,188.5-27.56,201.05-18.63,378.16-22.35,462.74-142.46,114.84-163.07-240.93-617.39-331.84-903.89-15.42-48.61-23.41-92.32-19.72-129.12,24.68-249.25,452.28-256.65,609.17-411.79,17-16.85,36.21-30.75,56.81-42.61,109.88-63.43,262.33-67.35,372.24-128.51,132.22-73.58,48.52-399.49,53.42-570.55"></path>
      <path class="cls-7" d="M531.68,3186.08c-1.58-187.87,202.24-308,412-363.26,155.57-41,304.49-56.75,427.6-91.8,35.23-10,67.94-23.75,99.85-38.09,212-95.32,302.11-274,563.72-292.54,72.76-5.17,156.57,1.76,257.9-9.47,81.77-9.05,154.3-25.3,234-45,61.41-15.18,123-25,190-31.39,203.73-19.1,383.09-14.46,471.38-134.15,118-160-229.64-611.3-318.1-896.63-15-48.3-22.73-91.76-19-128.45,24.93-248,445.26-258.53,600.12-414,16.79-16.86,35.7-30.79,56-42.74,108.33-63.88,258.78-69.2,367.52-130.82,131.18-74.35,50.5-396.64,57.62-565.73"></path>
      <path class="cls-8" d="M522.62,3163.72c-1-186.91,205.07-307.66,414.3-358.14,154.37-37.23,298.8-48.25,423.1-81.67,35.19-9.45,68-22.91,100.19-36.94,213.94-93.26,301.67-275.93,565.05-291.69,74.25-4.45,158.52,3.94,262-9.17,82.8-10.5,153.93-29.77,233.3-52.48,61.52-17.61,123.15-28.64,191.53-35.24,206.41-19.56,388-6.55,480-125.84,121.09-157-218.35-605.19-304.35-889.37-14.52-48-22.05-91.2-18.27-127.77,25.18-246.83,438.22-260.4,591-416.2,16.54-16.86,35.19-30.83,55.21-42.85,106.79-64.34,255.24-71.06,362.82-133.15,130.14-75.11,52.47-393.79,61.8-560.89"></path>
      <path class="cls-9" d="M513.56,3141.35c-.33-185.94,207.85-307.27,416.62-353,153.14-33.54,293.08-39.78,418.6-71.54,35.15-8.9,68-22.08,100.52-35.8,215.86-91.21,301.25-277.84,566.38-290.84,75.76-3.72,160.48,6.14,266-8.88,83.82-11.94,153.58-34.25,232.59-59.94,61.64-20,123.31-32.26,193-39.07,209.09-20,392.79,1.36,488.64-117.54,124.08-153.91-207.06-599.08-290.6-882.1-14.07-47.67-21.37-90.65-17.54-127.1,25.43-245.62,431.18-262.28,582-418.4,16.29-16.87,34.68-30.87,54.41-43,105.24-64.79,251.68-72.91,358.1-135.46,129.11-75.89,54.45-391,66-556.07"></path>
      <path class="cls-10" d="M504.5,3119c.29-185,210.57-306.9,419-347.88,151.86-29.86,287.35-31.3,414.09-61.4,35.1-8.34,68.06-21.26,100.86-34.67,217.78-89.14,300.83-279.69,567.7-290,77.27-3,162.45,8.35,270.1-8.59,84.85-13.36,153.22-38.75,231.88-67.39,61.77-22.5,123.46-35.89,194.55-42.91,211.78-20.49,397.55,9.28,497.28-109.24,127-150.9-195.78-593-276.86-874.83-13.62-47.36-20.69-90.09-16.81-126.44,25.68-244.41,424.14-264.13,572.92-420.6,16.05-16.87,34.17-30.91,53.61-43.09,103.71-65.24,248.13-74.78,353.39-137.79,128.08-76.66,56.43-388.1,70.19-551.24"></path>
      <path class="cls-11" d="M495.45,3096.63c.91-184,213.21-306.54,421.26-342.75,150.55-26.21,281.6-22.85,409.59-51.28,35-7.78,68.1-20.42,101.19-33.52,219.7-87.09,300.43-281.52,569-289.13,78.79-2.24,164.4,10.58,274.17-8.3,85.88-14.77,152.88-43.27,231.16-74.85,61.91-25,123.62-39.52,196.07-46.75,214.46-21,402.26,17.21,505.91-100.93,129.79-147.91-184.5-586.85-263.11-867.57-13.18-47-20-89.53-16.08-125.76,25.92-243.2,417.11-266,563.86-422.8,15.79-16.88,33.66-31,52.81-43.22,102.16-65.69,244.58-76.64,348.68-140.1,127-77.44,58.4-385.26,74.38-546.42"></path>
      <path class="cls-12" d="M486.39,3074.27c1.53-183.06,215.81-306.2,423.58-337.63,149.2-22.57,275.84-14.4,405.09-41.14,35-7.24,68.15-19.59,101.52-32.38,221.63-85,300.11-296.48,570.37-288.28,80.27,2.43,166.35,12.81,278.23-8,86.9-16.17,152.53-47.82,230.45-82.3,62-27.46,123.77-43.15,197.58-50.59,217.14-21.42,406.91,25.12,514.54-92.62,132.51-145-173.22-580.74-249.36-860.31-12.73-46.73-19.33-89-15.35-125.09,26.17-242,410.07-267.86,554.8-425,15.54-16.88,33.14-31,52-43.33,100.62-66.15,241-78.51,344-142.42,126-78.23,60.38-382.42,78.57-541.59"></path>
      <path class="cls-13" d="M477.33,3051.9c2.16-182.09,218.35-305.86,425.9-332.5,147.82-19,270.06-6,400.58-31,34.93-6.7,68.2-18.75,101.87-31.24,223.54-83,299.87-298.88,571.69-287.42,81.75,3.44,168.31,15.06,282.29-7.72,87.94-17.56,152.19-52.39,229.75-89.76,62.17-30,123.92-46.77,199.08-54.43,219.83-21.87,411.53,33,523.19-84.31,135.15-142.05-161.95-574.62-235.62-853-12.28-46.42-18.66-88.42-14.62-124.42,26.42-240.78,403-269.72,545.73-427.21,15.3-16.88,32.64-31,51.21-43.46,99.07-66.6,237.48-80.38,339.26-144.74,125-79,62.35-379.57,82.76-536.76"></path>
      <path class="cls-14" d="M468.27,3029.54c2.79-181.13,220.83-305.56,428.22-327.37,146.41-15.4,264.26,2.44,396.08-20.88,34.87-6.17,68.24-17.93,102.2-30.1,225.47-80.91,299.65-301.19,573-286.57,83.22,4.45,170.27,17.31,286.36-7.42,89-19,151.84-57,229-97.23,62.3-32.47,124.07-50.39,200.59-58.26,222.51-22.34,416.08,40.93,531.82-76,137.73-139.16-150.68-568.48-221.87-845.78-11.84-46.09-18-87.86-13.89-123.74,26.66-239.58,396-271.57,536.67-429.42,15-16.88,32.13-31.07,50.4-43.57,97.53-67.06,233.93-82.26,334.55-147.06,123.93-79.81,64.33-376.73,86.95-531.94"></path>
      <path class="cls-15" d="M459.21,3007.18c3.41-180.17,223.25-305.29,430.54-322.25,145-11.86,258.45,10.84,391.58-10.75,34.8-5.64,68.28-17.09,102.53-28.95,227.39-78.85,299.43-303.4,574.35-285.72,84.69,5.44,172.23,19.58,290.43-7.13,90-20.33,151.49-61.6,228.33-104.68,62.43-35,124.22-54,202.1-62.11,225.19-22.8,420.59,48.82,540.46-67.7,140.22-136.31-139.43-562.35-208.13-838.51-11.39-45.78-17.3-87.31-13.17-123.07,26.92-238.37,389-273.42,527.62-431.62,14.79-16.89,31.61-31.12,49.6-43.7,96-67.51,230.37-84.14,329.84-149.38,122.88-80.6,66.31-373.88,91.14-527.1"></path>
      <path class="cls-16" d="M450.15,2984.82c4-179.21,230.2-272.09,432.86-317.12,140.29-31.18,252.63,19.22,387.08-.62,34.72-5.12,68.33-16.26,102.87-27.81,229.31-76.8,299.21-305.51,575.68-284.87,86.15,6.43,174.18,21.85,294.49-6.84,91-21.7,151.13-66.22,227.61-112.14,62.56-37.55,124.38-57.65,203.62-65.94,227.88-23.26,425,56.68,549.09-59.4,142.66-133.5-128.16-556.21-194.38-831.24-11-45.47-16.62-86.75-12.44-122.41,27.17-237.15,381.95-275.25,518.55-433.82,14.55-16.89,31.11-31.16,48.8-43.81,94.45-68,226.82-86,325.13-151.7,121.85-81.4,68.29-371,95.33-522.28"></path>
      <path class="cls-17" d="M441.1,2962.46c4.65-178.25,232.1-269.91,435.17-312,139.08-28.83,246.8,27.58,382.58,9.51,34.65-4.61,68.37-15.43,103.2-26.67,231.23-74.73,299-307.53,577-284,87.62,7.41,176.14,24.13,298.56-6.55,92.05-23.07,150.76-70.87,226.9-119.59,62.68-40.11,124.53-61.28,205.13-69.78,230.56-23.73,429.47,64.51,557.72-51.09,145-130.74-116.91-550.08-180.63-824-10.5-45.14-15.94-86.19-11.71-121.73,27.42-235.94,374.92-277.1,509.49-436,14.3-16.89,30.59-31.2,48-43.94,92.9-68.41,223.26-87.91,320.41-154,120.81-82.21,70.27-368.19,99.53-517.46"></path>
      <path class="cls-18" d="M432,2940.09c5.28-177.28,233.87-267.81,437.49-306.87,137.9-26.44,241,35.93,378.08,19.65,34.57-4.1,68.41-14.6,103.54-25.53,233.15-72.68,297.74-293.28,578.33-283.16,89.42,3.22,178.11,26.42,302.63-6.26,93.08-24.42,150.39-75.52,226.19-127.05,62.8-42.68,124.68-64.91,206.64-73.62,233.24-24.19,433.84,72.33,566.36-42.78,147.35-128-105.66-543.93-166.89-816.72-10.06-44.83-15.26-85.64-11-121.06,27.66-234.74,367.9-278.94,500.42-438.23,14.06-16.89,30.09-31.24,47.2-44.05,91.36-68.87,219.71-89.8,315.71-156.34,119.77-83,72.24-365.34,103.71-512.62"></path>
      <path class="cls-19" d="M423,2917.73c5.9-176.33,235.49-265.84,439.81-301.74,136.75-24,235.1,44.25,373.57,29.78,34.49-3.61,68.46-13.77,103.88-24.39,235.07-70.62,297.37-294.85,579.66-282.31,90.95,4,180.08,28.72,306.7-6,94.11-25.77,150-80.19,225.48-134.5,62.9-45.27,124.83-68.54,208.15-77.46,235.92-24.66,438.17,80.12,575-34.48,149.62-125.31-94.42-537.78-153.14-809.45-9.62-44.51-14.58-85.08-10.25-120.39,27.91-233.53,360.87-280.77,491.36-440.43,13.8-16.89,29.57-31.29,46.4-44.18,89.81-69.32,216.15-91.69,311-158.65,118.73-83.82,74.22-362.5,107.91-507.8"></path>
      <path class="cls-20" d="M413.92,2895.37c6.53-175.37,237-264,442.13-296.62,135.63-21.56,229.23,52.56,369.07,39.91,34.41-3.11,68.5-12.93,104.21-23.25,237-68.55,297-296.37,581-281.45,92.47,4.86,182,31,310.77-5.67,95.14-27.13,149.61-84.88,224.77-142,63-47.85,125-72.16,209.65-81.3,238.61-25.11,442.47,87.88,583.64-26.17,151.83-122.67-83.19-531.62-139.4-802.19-9.18-44.18-13.91-84.52-9.52-119.71,28.16-232.32,353.85-282.6,482.3-442.64,13.55-16.89,29.06-31.32,45.59-44.29,88.28-69.78,212.59-93.59,306.29-161,117.68-84.63,76.19-359.65,112.09-503"></path>
      <path class="cls-21" d="M404.86,2873C412,2698.6,643.17,2610.7,849.32,2581.52c134.52-19.05,223.35,60.84,364.56,50,34.32-2.63,68.55-12.11,104.55-22.11,238.91-66.5,296.62-297.89,582.32-280.6,94,5.68,184,33.34,314.83-5.38,96.18-28.47,149.21-89.58,224.05-149.42,63.1-50.46,125.14-75.79,211.17-85.14,241.3-25.58,446.73,95.6,592.27-17.87,154-120.06-72-525.46-125.65-794.92-8.74-43.86-13.23-84-8.79-119C3137,926,3455.46,872.65,3581.86,712.24c13.31-16.89,28.55-31.37,44.8-44.42,86.73-70.23,209-95.49,301.57-163.29,116.64-85.46,78.17-356.81,116.29-498.15"></path>
      <path class="cls-22" d="M395.8,2850.64c7.78-173.44,239.53-260.76,446.78-286.36,133.46-16.49,219.75,87.1,360.06,60.17,33.69-6.46,68.59-11.27,104.88-21,240.84-64.44,296.25-299.38,583.65-279.75,95.51,6.52,186,35.66,318.9-5.09,97.21-29.8,148.8-94.28,223.34-156.88,63.18-53.06,125.29-79.42,212.68-89,244-26.05,450.95,103.28,600.9-9.57,156.14-117.5-60.72-519.3-111.9-787.66-8.31-43.54-12.55-83.4-8.06-118.37,28.65-229.9,339.81-286.24,464.17-447,13.06-16.89,28-31.4,44-44.53,85.19-70.68,205.47-97.4,296.87-165.61,115.59-86.29,80.14-354,120.47-493.32"></path>
      <path class="cls-23" d="M386.74,2828.28c8.41-172.48,240.81-304.65,449.1-281.24,132.3,14.88,213.69,95.86,355.56,70.31,33.65-6.06,68.63-10.44,105.22-19.83,242.75-62.38,295.87-300.83,585-278.89,97,7.36,188,38,323-4.8,98.25-31.13,148.38-99,222.63-164.33,63.26-55.68,125.44-83.05,214.19-92.82,246.66-26.5,455.14,110.94,609.54-1.25,158.23-115-49.51-513.14-98.16-780.4-7.87-43.22-11.87-82.85-7.34-117.7,28.91-228.69,332.8-288.06,455.11-449.24,12.82-16.89,27.56-31.42,43.19-44.66,83.8-71,201.92-99.3,292.16-167.93C4050.43,408.39,4018,144.38,4060.55,7"></path>
      <path class="cls-24" d="M377.69,2805.92c9-171.52,242.83-304.83,451.41-276.11,130.63,18,207.61,104.54,351.06,80.43,33.61-5.64,68.67-9.61,105.55-18.68,244.68-60.32,295.5-302.28,586.3-278,98.56,8.21,189.93,40.32,327-4.51,99.29-32.46,148-103.7,221.92-171.79,63.33-58.3,125.59-86.67,215.7-96.65,249.34-27,459.29,118.55,618.17,7,160.3-112.5-38.3-507-84.41-773.13-7.44-42.9-11.19-82.29-6.61-117C3193,930,3489.61,867.58,3609.87,706c12.57-16.89,27.05-31.45,42.39-44.77C3734.52,589.83,3850.61,560,3939.7,491,4053.21,403,4023.81,142.71,4068.56,7.32"></path>
      <path class="cls-25" d="M368.63,2783.56c9.65-170.56,244.84-305.09,453.73-271,129,21,201.51,113.16,346.56,90.57,33.57-5.23,68.72-8.78,105.88-17.54,246.6-58.27,295.12-303.7,587.64-277.19,100.08,9.07,191.9,42.66,331.1-4.22,100.33-33.78,147.52-108.42,221.2-179.24,63.4-60.93,125.75-90.31,217.22-100.5,252-27.43,463.42,126.13,626.8,15.36,162.34-110.06-27.09-500.79-70.66-765.87-7-42.57-10.51-81.73-5.88-116.35,29.4-226.27,318.78-291.69,437-453.65,12.32-16.89,26.54-31.5,41.58-44.9,80.73-71.86,194.79-103.13,282.74-172.57,112.45-88.78,86.08-345.42,133-478.83"></path>
      <path class="cls-26" d="M359.57,2761.2c10.27-169.6,246.83-305.41,456.05-265.87,127.27,24.06,195.39,121.72,342.05,100.7,33.54-4.8,68.77-7.94,106.23-16.39,248.52-56.21,294.73-305.11,589-276.34,101.6,9.93,193.88,45,335.17-3.92,101.38-35.11,147.07-113.16,220.49-186.71,63.45-63.56,125.91-93.93,218.72-104.33C2882,1980.44,3094.78,2142,3262.69,2032c164.34-107.66-15.89-494.61-56.92-758.6-6.57-42.25-9.83-81.18-5.15-115.68,29.65-225.07,311.77-293.5,427.92-455.86,12.08-16.88,26-31.53,40.79-45,79.19-72.32,191.21-105.05,278-174.89,111.4-89.62,88.06-342.58,137.24-474"></path>
      <path class="cls-27" d="M350.51,2738.83C361.41,2570.2,599.33,2433,808.88,2478.1c125.58,27,189.25,130.21,337.55,110.83,33.5-4.38,68.81-7.12,106.56-15.26,250.44-54.14,294.35-306.49,590.29-275.48,103.12,10.8,195.87,47.35,339.24-3.63,102.42-36.42,146.62-117.89,219.78-194.16,63.49-66.2,126.06-97.56,220.23-108.18,257.4-28.35,471.61,141.16,644.08,32,166.33-105.29-4.7-488.43-43.17-751.33-6.14-41.92-9.09-80.61-4.42-115,30.35-223.8,304.77-295.3,418.86-458.06,11.83-16.89,25.52-31.58,40-45.14,77.65-72.76,187.65-107,273.32-177.2,110.34-90.47,90-339.74,141.43-469.19"></path>
      <path class="cls-28" d="M341.45,2716.47C353,2548.8,592.26,2410.19,802.14,2460.86c123.9,29.92,183.1,138.63,333.05,121,33.47-3.95,68.85-6.29,106.89-14.12,252.36-52.09,294-307.86,591.62-274.63,104.64,11.68,197.85,49.7,343.31-3.34,103.47-37.73,146.16-122.62,219.07-201.62,63.53-68.83,126.21-101.18,221.74-112,260.08-28.82,475.67,148.6,652.72,40.28,168.29-103,6.48-482.25-29.43-744.08-5.71-41.59-8.41-80-3.69-114.33,30.6-222.59,297.77-297.1,409.8-460.27,11.58-16.88,25-31.62,39.18-45.25,76.11-73.22,184.07-108.9,268.6-179.53C4064.29,381.62,4047,136,4100.63,8.58"></path>
      <path class="cls-29" d="M332.39,2694.11c12.15-166.71,252.8-306.84,463-250.48,122.22,32.76,176.94,147,328.55,131.09,33.44-3.5,68.89-5.45,107.23-13,254.28-50,293.57-309.22,593-273.78,106.15,12.56,199.83,52.06,347.37-3,104.52-39,145.69-127.35,218.36-209.07,63.55-71.48,126.36-104.82,223.25-115.85,262.76-29.29,479.71,156,661.35,48.58,170.25-100.69,17.65-476.06-15.68-736.81-5.28-41.27-7.73-79.5-3-113.67,30.86-221.37,290.77-298.89,400.73-462.46,11.35-16.88,24.5-31.66,38.38-45.38,74.58-73.67,180.5-110.83,263.89-181.84,108.24-92.17,94-334,149.82-459.53"></path>
      <path class="cls-30" d="M323.34,2671.75c12.77-165.75,254.8-307.48,465.32-245.36,120.54,35.57,170.77,155.26,324.05,141.23,33.4-3.06,68.94-4.62,107.56-11.84,256.2-48,293.18-310.54,594.28-272.92,107.67,13.45,201.83,54.42,351.44-2.76,105.57-40.35,145.21-132.09,217.64-216.53,63.58-74.12,126.52-108.44,224.77-119.69,265.44-29.75,483.72,163.38,670,56.89,172.19-98.44,28.82-469.87-1.93-729.54-4.85-41-7-78.94-2.23-113,31.11-220.16,283.78-300.68,391.67-464.67,11.1-16.87,24-31.7,37.58-45.49,73-74.13,176.92-112.77,259.18-184.17,107.17-93,96-331.2,154-454.7"></path>
      <path class="cls-31" d="M314.28,2649.39c13.39-164.79,256.82-308.2,467.65-240.24,118.87,38.33,164.59,163.47,319.54,151.36,33.37-2.61,69-3.79,107.9-10.69,258.12-45.91,292.77-311.87,595.6-272.07,109.19,14.35,203.82,56.79,355.51-2.47,106.62-41.65,144.72-136.83,216.93-224,63.6-76.76,126.67-112.06,226.28-123.52,268.13-30.21,487.72,170.69,678.62,65.19,174.11-96.22,40-463.68,11.81-722.28-4.43-40.61-6.37-78.38-1.51-112.32,31.37-218.95,276.8-302.47,382.61-466.87,10.86-16.87,23.49-31.74,36.78-45.62,71.5-74.58,173.35-114.7,254.47-186.48C4072.58,365.5,4064.41,131,4124.67,9.51"></path>
      <path class="cls-32" d="M305.22,2627c14-163.82,258.87-309,470-235.1,117.22,41,158.47,150.49,315,161.49,33.33,2.34,69-3,108.24-9.55,260-43.85,292.38-313.18,596.93-271.22,110.7,15.25,205.82,59.16,359.58-2.17,107.68-43,144.23-141.58,216.22-231.45,63.61-79.41,126.82-115.7,227.79-127.37,270.81-30.67,491.71,178,687.25,73.5,176-94,51.13-457.48,25.56-715-4-40.29-5.69-77.83-.78-111.65,31.62-217.74,269.81-304.26,373.55-469.08,10.61-16.86,23-31.78,36-45.73,70-75,169.76-116.64,249.76-188.8,105-94.76,99.91-325.52,162.39-445"></path>
      <path class="cls-33" d="M296.16,2604.66c14.64-162.86,261-309.87,472.29-230C884,2418.38,921,2533.19,1079,2546.3c33.24,2.76,69.07-2.12,108.57-8.41,262-41.79,292-314.47,598.26-270.36,112.22,16.16,207.82,61.54,363.65-1.88,108.73-44.26,143.73-146.32,215.51-238.91,63.61-82,127-119.32,229.29-131.2,273.5-31.14,495.69,185.2,695.9,81.81,177.93-91.89,62.26-451.29,39.3-707.75-3.58-40-5-77.27-.05-111,31.87-216.53,262.83-306,364.49-471.29,10.37-16.85,22.46-31.82,35.17-45.85,68.43-75.48,166.19-118.58,245-191.12,104-95.63,101.9-322.67,166.58-440.22"></path>
      <path class="cls-34" d="M287.1,2582.3c15.27-161.9,263.07-310.82,474.61-224.85,114,46.32,146.69,166.49,306,181.75,33.15,3.17,69.12-1.3,108.91-7.27,263.88-39.73,291.56-315.75,599.59-269.51,113.72,17.07,209.81,63.92,367.71-1.59,109.79-45.55,143.22-151.06,214.79-246.36,63.61-84.7,127.13-123,230.81-135,276.18-31.6,499.65,192.38,704.53,90.11,179.83-89.78,73.39-445.08,53-700.49-3.15-39.63-4.32-76.71.69-110.3,32.12-215.33,255.85-307.82,355.42-473.49,10.13-16.85,21.95-31.86,34.38-46,66.88-75.94,162.6-120.53,240.34-193.44,102.89-96.5,103.87-319.82,170.77-435.4"></path>
      <path class="cls-35" d="M278,2559.94C293.94,2399,543.27,2248.08,755,2340.21c112.4,48.91,140.8,174.45,301.53,191.88,33.06,3.59,69.16-.46,109.24-6.12,265.81-37.68,291.15-317,600.92-268.66,115.23,18,211.82,66.3,371.78-1.3,110.85-46.84,142.71-155.8,214.08-253.82,63.6-87.35,127.28-126.57,232.32-138.88,278.86-32.06,503.6,199.54,713.16,98.42,181.73-87.69,84.52-438.88,66.79-693.22-2.73-39.31-3.64-76.16,1.42-109.64,32.36-214.11,248.88-309.59,346.36-475.69,9.88-16.84,21.44-31.9,33.57-46.09,65.35-76.4,159-122.48,235.63-195.76,101.82-97.38,105.85-317,175-430.56"></path>
      <path class="cls-36" d="M269,2537.57c16.51-160,267.43-313,479.24-214.6,110.83,51.47,134.92,182.39,297,202,33,4,69.2.37,109.58-5,267.72-35.62,290.72-318.28,602.24-267.81,116.74,18.91,213.83,68.69,375.85-1,111.91-48.14,142.2-160.54,213.37-261.27,63.59-90,127.43-130.21,233.83-142.72,281.55-32.53,507.55,206.63,721.8,106.72,183.63-85.63,95.62-432.67,80.53-685.95-2.32-39-3-75.6,2.15-109,32.61-212.9,241.91-311.36,337.29-477.89,9.65-16.84,20.94-32,32.78-46.21,63.8-76.86,155.42-124.43,230.91-198.08,100.74-98.26,107.83-314.13,179.16-425.74"></path>
      <path class="cls-37" d="M259.93,2515.21c17.14-159,269.7-314.13,481.56-209.47,109.29,54,129,190.3,292.53,212.15,32.88,4.39,69.24,1.19,109.91-3.85,269.65-33.56,290.31-319.52,603.57-266.95,118.25,19.84,215.84,71.08,379.92-.72,113-49.43,141.67-165.28,212.66-268.73,63.57-92.64,127.58-133.83,235.34-146.56,284.23-33,511.48,213.7,730.43,115,185.53-83.6,106.72-426.46,94.28-678.69-1.9-38.65-2.28-75,2.88-108.29C3435.86,947.44,3638,846,3731.24,679c9.4-16.83,20.42-32,32-46.33,62.27-77.31,151.83-126.38,226.21-200.39,99.65-99.16,109.8-311.29,183.34-420.92"></path>
      <path class="cls-38" d="M250.87,2492.85c17.76-158,272-315.37,483.88-204.35,107.78,56.48,123.18,198.2,288,222.28,32.8,4.79,69.28,2,110.24-2.7,271.57-31.5,289.88-320.76,604.91-266.1,119.74,20.77,217.84,73.47,384-.42,114-50.72,141.15-170,212-276.19,63.54-95.3,127.73-137.46,236.85-150.4,286.91-33.45,515.41,220.71,739.06,123.34,187.43-81.61,117.81-420.27,108-671.43-1.49-38.32-1.61-74.48,3.61-107.62,33.1-210.48,228-314.89,319.17-482.3,9.16-16.83,19.91-32,31.17-46.45,60.72-77.77,148.22-128.35,221.49-202.72,98.56-100,111.78-308.44,187.54-416.08"></path>
      <path class="cls-39" d="M241.81,2470.49c18.39-157.09,274.4-316.68,486.2-199.22,106.3,58.95,117.32,206.06,283.52,232.41,32.72,5.18,69.34,2.86,110.59-1.56,273.49-29.44,289.45-322,606.23-265.25,121.25,21.71,219.86,75.86,388.05-.13,115.1-52,140.61-174.76,211.23-283.65,63.52-97.94,127.89-141.09,238.37-154.24,289.59-33.91,519.34,227.69,747.7,131.65,189.32-79.63,128.88-414.06,121.77-664.17-1.08-38-.93-73.92,4.33-106.94,33.35-209.28,221-316.66,310.11-484.51,8.93-16.82,19.4-32.07,30.37-46.56,59.19-78.23,144.63-130.31,216.79-205,97.46-100.94,113.75-305.6,191.72-411.26"></path>
      <path class="cls-40" d="M232.75,2448.13c19-156.13,276.86-318.05,488.52-194.1,104.85,61.4,111.47,213.91,279,242.54,32.64,5.58,69.38,3.7,110.92-.42,275.41-27.38,289-323.2,607.56-264.39,122.75,22.66,221.87,78.26,392.12.16,116.17-53.29,140.08-179.5,210.52-291.1,63.49-100.59,128-144.72,239.87-158.08,292.28-34.38,523.27,234.63,756.34,140,191.23-77.68,140-407.84,135.52-656.9-.67-37.66-.25-73.37,5.06-106.27,33.59-208.07,214.11-318.42,301.05-486.71,8.68-16.81,18.89-32.11,29.57-46.69,57.64-78.69,141-132.27,212.07-207.36C4097.26,316.93,4116.62,116,4196.81,12.33"></path>
      <path class="cls-41" d="M223.69,2425.76c19.64-155.16,279.38-319.47,490.84-189,103.43,63.83,105.63,221.73,274.52,252.68,32.56,6,69.42,4.52,111.26.72,277.33-25.32,288.57-324.41,608.88-263.54,124.25,23.61,223.89,80.66,396.19.45,117.23-54.58,139.54-184.23,209.81-298.56,63.45-103.23,128.19-148.34,241.38-161.91,295-34.84,527.19,241.52,765,148.25,193.13-75.75,151-401.63,149.26-649.63-.26-37.33.43-72.81,5.79-105.61,33.84-206.85,207.17-320.16,292-488.91,8.44-16.8,18.38-32.15,28.76-46.8,56.1-79.15,137.42-134.25,207.37-209.68,95.26-102.74,117.7-299.91,200.1-401.61"></path>
      <path class="cls-42" d="M214.64,2403.4c20.25-154.2,282-320.94,493.16-183.84,102,66.24,99.79,229.53,270,262.8,32.48,6.35,69.46,5.36,111.59,1.87,279.25-23.27,288.13-325.61,610.22-262.69,125.74,24.56,225.9,83.06,400.25.74,118.3-55.86,139-189,209.1-306,63.41-105.89,128.34-152,242.89-165.76,297.65-35.3,531.11,248.38,773.61,156.56,195.05-73.85,162-395.42,163-642.37.15-37,1.11-72.25,6.52-104.93,34.08-205.64,200.24-321.92,282.92-491.11,8.21-16.8,17.87-32.2,28-46.93,54.55-79.6,133.8-136.21,202.65-212C4102.7,306.09,4128.23,112.67,4212.84,13"></path>
      <path class="cls-43" d="M205.58,2381c20.88-153.24,284.63-322.47,495.48-178.72,100.68,68.65,94,237.31,265.51,272.94,32.41,6.73,69.51,6.19,111.92,3,281.18-21.2,287.68-326.79,611.55-261.83,127.23,25.52,227.93,85.47,404.32,1,119.38-57.14,138.45-193.7,208.38-313.47,63.38-108.53,128.51-155.6,244.41-169.59,300.33-35.77,535,255.19,782.24,164.87,197-72,173.07-389.22,176.76-635.11.55-36.67,1.78-71.7,7.25-104.26,34.32-204.44,193.31-323.67,273.86-493.32,8-16.78,17.36-32.23,27.16-47,53-80.07,130.19-138.19,197.94-214.32,93-104.55,121.67-294.21,208.49-392"></path>
      <path class="cls-44" d="M196.52,2358.68c21.51-152.28,287.37-324,497.8-173.6,99.36,71,88.16,245.07,261,283.07,32.33,7.11,69.55,7,112.26,4.15,283.09-19.15,287.22-328,612.87-261,128.73,26.48,230,87.88,408.39,1.32,120.45-58.42,137.89-198.43,207.67-320.92,63.33-111.18,128.66-159.23,245.92-173.44,303-36.23,539,262,790.88,173.18,198.89-70.11,184.08-383,190.5-627.84,1-36.35,2.46-71.14,8-103.59,34.55-203.23,186.39-325.42,264.79-495.52A393.58,393.58,0,0,1,3823,617.34c51.46-80.52,126.57-140.16,193.23-216.63,91.93-105.47,123.64-291.37,212.68-387.13"></path>
      <path class="cls-45" d="M187.46,2336.31c22.13-151.32,290.18-325.62,500.12-168.46,98.07,73.42,82.36,252.8,256.5,293.2,32.27,7.48,69.6,7.85,112.6,5.29,285-17.09,286.77-329.15,614.2-260.13,130.22,27.45,232,90.28,412.46,1.62,121.52-59.71,137.34-203.17,207-328.39,63.28-113.81,128.81-162.85,247.43-177.27,305.69-36.69,542.88,268.72,799.51,181.48,200.83-68.27,195.08-376.81,204.25-620.58,1.36-36,3.14-70.58,8.71-102.91,34.79-202,179.47-327.17,255.73-497.73a406,406,0,0,1,25.56-47.28c49.92-81,123-142.14,188.52-219,90.81-106.38,125.62-288.52,216.87-382.29"></path>
      <path class="cls-46" d="M178.4,2314c22.76-150.36,293.07-327.25,502.44-163.34,96.82,75.8,76.58,260.52,252,303.33,32.2,7.86,69.64,8.69,112.93,6.44,286.94-15,286.31-330.33,615.53-259.28,131.71,28.42,234,92.7,416.53,1.91,122.6-61,136.78-207.89,206.25-335.84,63.22-116.46,129-166.49,248.94-181.11,308.37-37.16,546.81,275.43,808.15,189.78,202.77-66.45,206.06-370.6,218-613.31,1.76-35.69,3.82-70,9.44-102.24,35-200.81,172.57-328.92,246.67-499.93A417.64,417.64,0,0,1,3840,613c48.37-81.44,119.32-144.11,183.81-221.27C4113.51,284.37,4151.43,106,4244.9,14.21"></path>
      <path class="cls-47" d="M169.34,2291.59c23.38-149.4,296-328.91,504.76-158.21,95.59,78.18,70.81,268.2,247.5,313.46,32.13,8.23,69.68,9.52,113.27,7.57,288.86-13,285.84-331.48,616.86-258.42,133.19,29.39,236,95.11,420.59,2.2,123.67-62.26,136.22-212.62,205.54-343.3,63.17-119.1,129.11-170.11,250.44-185,311.07-37.62,550.75,282.11,816.79,198.09,204.73-64.65,217-364.4,231.74-606,2.15-35.36,4.49-69.47,10.16-101.57,35.27-199.61,165.68-330.66,237.61-502.14a435.13,435.13,0,0,1,24-47.52c46.83-81.91,115.7-146.1,179.1-223.59,88.54-108.23,129.57-282.84,225.25-372.65"></path>
      <path class="cls-48" d="M160.29,2269.23c24-148.44,299.07-330.6,507.07-153.09,94.4,80.56,65,275.88,243,323.6,32.06,8.59,69.73,10.34,113.6,8.71,290.78-10.91,285.37-332.64,618.19-257.57,134.68,30.37,238.07,97.52,424.66,2.49,124.75-63.54,135.66-217.34,204.82-350.76,63.12-121.73,129.27-173.73,252-188.78,313.75-38.08,554.69,288.74,825.42,206.4,206.69-62.87,228-358.21,245.49-598.79,2.55-35,5.11-68.92,10.89-100.9,35.12-198.46,158.78-332.39,228.55-504.33a448.1,448.1,0,0,1,23.16-47.65c45.28-82.36,112.06-148.08,174.38-225.91,87.41-109.15,131.55-280,229.45-367.81"></path>
      <path class="cls-49" d="M151.23,2246.87c24.62-147.48,302.19-332.29,509.39-148,93.24,82.95,59.31,283.54,238.5,333.73,32,9,69.77,11.18,113.94,9.86,292.7-8.86,284.89-333.79,619.51-256.72,136.17,31.36,240.11,99.94,428.73,2.78,125.83-64.81,135.09-222.07,204.11-358.21,63.05-124.38,129.42-177.37,253.47-192.63,316.43-38.54,558.63,295.36,834.06,214.71,208.66-61.1,238.94-352,259.23-591.52,2.94-34.7,5.79-68.37,11.62-100.23,35.37-197.25,151.9-334.14,219.48-506.54a471.24,471.24,0,0,1,22.36-47.76c43.74-82.83,108.43-150.06,169.68-228.23,86.26-110.09,133.52-277.15,233.63-363"></path>
      <path class="cls-50" d="M142.17,2224.5c25.25-146.51,305.37-334,511.71-142.83,92.1,85.33,53.58,291.17,234,343.86,31.94,9.33,69.81,12,114.27,11,294.62-6.79,284.41-334.92,620.84-255.86,137.65,32.34,242.14,102.36,432.8,3.07,126.91-66.09,134.52-226.79,203.4-365.67,63-127,129.57-181,255-196.46,319.11-39,562.58,301.93,842.69,223,210.65-59.35,249.87-345.83,273-584.25,3.33-34.38,6.46-67.82,12.35-99.56,35.61-196,145-335.88,210.42-508.74a487.12,487.12,0,0,1,21.56-47.89c42.18-83.28,104.79-152,165-230.55,85.11-111,135.5-274.3,237.83-358.16"></path>
      <path class="cls-51" d="M133.11,2202.14c25.88-145.55,308.63-335.72,514-137.71,91,87.72,47.86,298.79,229.5,354,31.88,9.69,69.85,12.84,114.6,12.14,296.55-4.73,283.93-336.06,622.18-255,139.12,33.33,244.17,104.78,436.86,3.37,128-67.37,133.95-231.52,202.69-373.13,62.92-129.65,129.72-184.62,256.49-200.3C2831.25,1566,3076,1914,3360.78,1836.8c212.65-57.61,260.79-339.64,286.73-577,3.72-34,7.14-67.25,13.08-98.88C3696.45,966.09,3798.74,823.31,3862,650a507.56,507.56,0,0,1,20.75-48c40.64-83.75,101.15-154,160.26-232.87,83.94-111.95,137.47-271.46,242-353.34"></path>
      <path class="cls-52" d="M124.05,2179.78c26.5-144.59,312-337.44,516.35-132.58,89.92,90.12,42.16,306.39,225,364.12,31.84,10,69.91,13.67,115,13.28,298.46-2.68,283.43-337.19,623.5-254.16,140.6,34.33,246.22,107.2,440.93,3.66,129.07-68.64,133.38-236.24,202-380.59,62.86-132.28,129.87-188.24,258-204.14,324.48-39.93,570.49,315,860,239.62,214.64-55.89,271.69-333.46,300.47-569.72,4.11-33.73,7.82-66.7,13.81-98.21,36.11-193.63,131.29-339.36,192.29-513.15,5.87-16.71,12.76-32.62,20-48.13,39.08-84.21,97.49-156,155.54-235.18C4129.56,251.71,4186.24,96,4293,16.09"></path>
      <path class="cls-53" d="M115,2157.42c27.13-143.63,315.34-339.17,518.68-127.46,88.87,92.53,36.46,314,220.48,374.25,31.78,10.41,70,14.51,115.28,14.42,300.39-.61,282.94-338.31,624.83-253.3,142.08,35.32,248.26,109.63,445,4,130.15-69.91,132.81-241,201.26-388,62.8-134.92,130-191.88,259.51-208,327.17-40.4,574.47,321.49,868.6,247.93,216.66-54.19,282.58-327.29,314.22-562.46,4.5-33.41,8.5-66.15,14.54-97.54,36.36-192.42,124.43-341.1,183.23-515.36,5.63-16.7,12.21-32.67,19.15-48.24,37.37-84.75,93.84-158,150.84-237.51C4132.22,246.25,4192,94.32,4301,16.4"></path>
      <path class="cls-54" d="M105.94,2135.06c27.74-142.67,318.79-340.89,521-122.34,87.84,95,30.79,321.54,216,384.39,31.73,10.77,70,15.33,115.62,15.56,302.3,1.44,282.44-339.43,626.15-252.45,143.55,36.33,250.3,112.05,449.07,4.24C2165,2093.28,2166,1918.79,2234.3,1769c62.72-137.55,130.18-195.5,261-211.82,329.85-40.86,578.44,327.95,877.24,256.24,218.69-52.49,293.44-321.13,328-555.2,4.88-33.08,9.18-65.58,15.27-96.87,36.6-191.21,117.59-342.83,174.17-517.55,5.4-16.69,11.7-32.72,18.35-48.37,35.82-85.19,90.18-160,146.12-239.82C4134.86,240.8,4197.84,92.65,4309,16.71"></path>
      <path class="cls-55" d="M96.88,2112.69c28.37-141.7,322.3-342.59,523.31-117.2C707,2092.87,645.32,2324.58,831.67,2390c31.68,11.13,70,16.17,116,16.71,304.23,3.5,281.94-340.55,627.49-251.6,145,37.33,252.34,114.48,453.13,4.53,132.32-72.45,131.65-250.38,199.84-402.95,62.65-140.19,130.33-199.13,262.53-215.66,332.53-41.32,582.43,334.39,885.87,264.54,220.73-50.81,304.3-315,341.71-547.93,5.26-32.76,9.86-65,16-96.2,36.86-190,110.76-344.57,165.11-519.76,5.18-16.68,11.19-32.75,17.55-48.48,34.28-85.65,86.52-162,141.41-242.15C4137.5,235.34,4203.64,91,4317,17"></path>
      <path class="cls-56" d="M87.82,2090.33c29-140.74,325.87-344.3,525.63-112.08,85.87,99.83,19.49,336.63,207,404.65,31.64,11.48,70.07,17,116.28,17.85,306.15,5.55,281.44-341.67,628.82-250.75,146.49,38.34,254.39,116.9,457.2,4.82,133.41-73.72,131.08-255.1,199.13-410.41,62.57-142.82,130.48-202.76,264-219.5,335.21-41.78,586.42,340.8,894.5,272.85,222.78-49.13,315.14-308.81,355.46-540.67,5.64-32.43,10.54-64.46,16.72-95.52,37.11-188.79,103.93-346.31,156.05-522,4.94-16.68,10.68-32.8,16.75-48.61,32.73-86.1,82.85-164,136.7-244.46,78.05-116.66,147.36-257.23,263-329.2"></path>
      <path class="cls-57" d="M78.76,2068c29.62-139.78,329.49-346,528-107,84.92,102.29,13.86,344.15,202.48,414.79,31.6,11.83,70.12,17.83,116.62,19,308.07,7.62,280.92-342.77,630.14-249.89,148,39.35,256.44,119.33,461.27,5.12,134.5-75,130.49-259.82,198.41-417.87,62.51-145.45,130.64-206.39,265.56-223.34,337.9-42.25,590.42,347.18,903.14,281.15,224.84-47.47,326-302.67,369.2-533.4,6-32.11,11.21-63.91,17.45-94.85,37.36-187.58,97.11-348.05,147-524.17,4.72-16.66,10.17-32.84,15.95-48.72,31.19-86.56,79.19-166,132-246.78,76.86-117.61,149.34-254.39,267.16-324.38"></path>
      <path class="cls-58" d="M69.7,2045.61C100,1906.79,402.86,1697.93,600,1943.78c84,104.75,8.25,351.65,198,424.91,31.57,12.19,70.17,18.66,117,20.13,310,9.68,280.41-343.87,631.47-249,149.43,40.36,258.49,121.76,465.34,5.41,135.58-76.27,129.91-264.53,197.7-425.33,62.43-148.08,130.79-210,267.07-227.17,340.58-42.72,594.43,353.54,911.77,289.45C3615.17,1736.32,3725,1485.6,3771.2,1256c6.4-31.8,11.89-63.36,18.18-94.18C3827,975.45,3879.67,812,3927.3,635.46c4.49-16.66,9.66-32.88,15.15-48.85,29.65-87,75.51-168,127.28-249.1C4145.38,219,4221,86,4341.08,18"></path>
      <path class="cls-59" d="M60.64,2023.24c30.87-137.85,336.88-349.34,532.59-96.7,83.07,107.24,2.66,359.15,193.47,435.05,31.53,12.54,70.21,19.49,117.29,21.27,311.92,11.73,279.9-345,632.8-248.19,150.9,41.38,260.54,124.19,469.41,5.7,136.67-77.54,129.33-269.24,197-432.78,62.35-150.71,130.95-213.64,268.58-231,343.26-43.17,598.45,359.89,920.41,297.77,229-44.19,347.56-290.42,396.69-518.88,6.77-31.48,12.57-62.79,18.91-93.5,37.85-185.17,83.49-351.53,128.86-528.58,4.26-16.65,9.14-32.92,14.34-49,28.11-87.47,71.84-170,122.57-251.42C4148,213.5,4226.84,84.3,4349.09,18.28"></path>
      <path class="cls-60" d="M51.59,2000.88c31.49-136.89,340.63-351,534.9-91.57,82.18,109.73-2.92,366.63,189,445.17,31.49,12.89,70.25,20.33,117.63,22.41,313.83,13.8,279.37-346.06,634.13-247.33,152.35,42.4,262.59,126.62,473.47,6,137.76-78.81,128.74-274,196.28-440.24,62.27-153.33,131.1-217.27,270.08-234.85,345.95-43.64,602.49,366.2,929,306.07,231.1-42.56,358.34-284.31,410.44-511.61,7.14-31.16,13.25-62.24,19.64-92.84,38.1-183.95,76.69-353.27,119.79-530.77,4-16.64,8.64-33,13.55-49.09,26.56-87.92,68.15-172,117.86-253.74C4150.59,208,4232.64,82.63,4357.11,18.59"></path>
      <path class="cls-61" d="M42.53,1978.52C74.64,1842.59,387,1625.9,579.75,1892.07c81.31,112.25-8.48,374.1,184.47,455.31,31.46,13.24,70.3,21.15,118,23.55,315.76,15.85,278.85-347.15,635.46-246.48,153.82,43.42,264.86,129.43,477.54,6.28,139-79.83,128.16-278.65,195.57-447.69,62.19-156,131.25-220.9,271.59-238.7,348.63-44.1,606.53,372.51,937.68,314.38,233.21-40.93,369.1-278.21,424.19-504.34,7.52-30.85,13.93-61.69,20.37-92.17,38.34-182.74,69.9-355,110.73-533,3.81-16.63,8.13-33,12.74-49.2,25-88.37,64.46-174,113.15-256.06,72-121.4,157.25-243,283.92-305.07"></path>
      <path class="cls-62" d="M33.47,1956.16c32.74-135,348.28-354.23,539.54-81.33,80.45,114.79-14,381.56,180,465.44,31.43,13.6,70.34,22,118.3,24.7,317.67,17.91,278.31-348.25,636.78-245.63,155.28,44.45,266.86,131.77,481.61,6.57,140-81.16,127.26-283.48,194.85-455.15,61.82-158.7,131.41-224.52,273.11-242.53C2809,1383.66,3068.21,1807,3404,1750.91c235.32-39.32,379.85-272.12,437.93-497.08,7.88-30.54,14.61-61.12,21.1-91.49,38.59-181.54,63.12-356.77,101.66-535.18,3.6-16.63,7.62-33,12-49.33,23.47-88.82,60.77-176,108.43-258.37C4155.78,197.1,4244.25,79.3,4373.14,19.22"></path>
      <path class="cls-63" d="M24.41,1933.8c33.36-134,352.16-355.81,541.86-76.2,79.6,117.32-19.56,389,175.47,475.57,31.4,13.94,70.38,22.82,118.63,25.83,319.6,20,277.59-348.66,638.11-244.77,156.65,45.76,268.87,134.11,485.68,6.87,141.11-82.5,126.77-288.15,194.14-462.61,61.84-161.29,131.56-228.16,274.62-246.37,354-45,614.63,385,954.95,331,237.46-37.71,390.58-266,451.68-489.81,8.25-30.23,15.29-60.57,21.82-90.82C3920.22,982.14,3937.73,804,3974,625.08q5.05-24.92,11.14-49.44c21.94-89.28,57.08-177.95,103.73-260.7,69.51-123.3,161.2-237.31,292.3-295.41"></path>
      <path class="cls-64" d="M15.35,1911.43c34-133,356.08-357.37,544.19-71.07,78.76,119.89-25.09,396.44,171,485.7,31.38,14.3,70.42,23.65,119,27,321.52,22,277.15-350.07,639.45-243.92,158.14,46.65,270.86,136.45,489.74,7.16,142.17-83.82,126.29-292.82,193.43-470.07,61.85-163.87,131.71-231.78,276.13-250.21,356.68-45.49,618.7,391.28,963.58,339.3,239.61-36.12,400.93-260.11,465.43-482.55,8.57-29.94,16-60,22.55-90.15,39.1-179.12,49.79-360.24,83.55-539.59q4.74-24.91,10.34-49.57c20.39-89.73,53.27-180,99-263C4160.78,186.09,4255.85,76,4389.17,19.84"></path>
      <path class="cls-65" d="M6.29,1889.07c34.62-132.08,360-358.91,546.51-65.94,90.36,141.95-69.86,497.46,285.76,523.95,323.44,24.09,276.7-351.49,640.77-243.07,159.64,47.54,272.87,138.8,493.81,7.45,143.22-85.15,125.8-297.48,192.72-477.53,61.86-166.45,131.86-235.4,277.64-254,359.36-46,622.78,397.5,972.22,347.6,241.76-34.53,412-254,479.17-475.29s60.15-455.39,107.3-680.95,169.18-460.9,395-551.09"></path>
    </g>
  </g>
</svg>
